<?xml version="1.0" encoding="UTF-8"?><svg xmlns="http://www.w3.org/2000/svg" viewBox="0 0 2161.96 568.69"><defs><style>.cls-1{fill:#016574;stroke-width:0px;}</style></defs><g id="Icon"><path class="cls-1" d="M229.06,114.53C229.06,51.27,177.78,0,114.53,0S0,51.27,0,114.53s51.27,114.53,114.53,114.53,114.53-51.28,114.53-114.53"/><path class="cls-1" d="M280.52,44.13c97.9,1.05,177.09,80.09,178.37,177.93h41.79v-.13C500.69,100.32,402.12,1.74,280.52,1.7v42.42Z"/><path class="cls-1" d="M280.43,127.61c51.55,1.63,93.07,42.98,94.99,94.45h41.65c-1.04-74.96-61.66-135.51-136.64-136.46v42Z"/><path class="cls-1" d="M280.42,486.85h.13c121.61,0,220.19-98.56,220.22-220.17l-220.45-.1.1,220.26Z"/><path class="cls-1" d="M193.98,423.99c-16.96,0-33.36,5.04-47.43,14.59-9.54,6.47-20.65,9.9-32.15,9.9s-22.6-3.43-32.15-9.9c-14.06-9.54-30.46-14.59-47.42-14.59-10.52,0-20.82,1.95-30.48,5.7v37.6c9.66-3.75,19.96-5.7,30.48-5.7,16.96,0,33.36,5.05,47.42,14.59,9.54,6.48,20.66,9.9,32.15,9.9s22.61-3.42,32.15-9.9c14.06-9.54,30.47-14.59,47.43-14.59,10.61,0,21,1.97,30.73,5.79v-37.6c-9.73-3.81-20.12-5.79-30.73-5.79"/><path class="cls-1" d="M193.98,345.37c-16.96,0-33.36,5.04-47.43,14.59-9.54,6.48-20.65,9.9-32.15,9.9s-22.6-3.42-32.15-9.9c-14.06-9.54-30.46-14.59-47.42-14.59-10.52,0-20.82,1.95-30.48,5.7v37.6c9.66-3.75,19.96-5.7,30.48-5.7,16.96,0,33.36,5.05,47.42,14.59,9.54,6.47,20.66,9.89,32.15,9.89s22.61-3.42,32.15-9.89c14.06-9.54,30.47-14.59,47.43-14.59,10.61,0,21,1.98,30.73,5.79v-37.6c-9.73-3.81-20.12-5.79-30.73-5.79"/><path class="cls-1" d="M193.98,266.76c-16.96,0-33.36,5.04-47.43,14.59-9.54,6.48-20.65,9.9-32.15,9.9s-22.6-3.42-32.15-9.9c-14.06-9.54-30.46-14.59-47.42-14.59-10.52,0-20.82,1.95-30.48,5.7v37.6c9.66-3.75,19.96-5.7,30.48-5.7,16.96,0,33.36,5.05,47.42,14.59,9.54,6.47,20.66,9.89,32.15,9.89s22.61-3.42,32.15-9.89c14.06-9.54,30.47-14.59,47.43-14.59,10.61,0,21,1.98,30.73,5.79v-37.6c-9.73-3.81-20.12-5.79-30.73-5.79"/></g><g id="SEPA"><path class="cls-1" d="M715.33,421.44c-23.04-10.5-41.27-24.83-54.69-42.94-13.42-18.12-20.58-38.35-21.47-60.72h79.18c1.34,15.66,8.83,28.75,22.48,39.25,13.64,10.52,30.75,15.77,51.33,15.77s38.13-4.13,49.99-12.42c11.85-8.27,17.78-18.88,17.78-31.87,0-13.86-6.61-24.16-19.79-30.86-13.2-6.71-34.12-14.1-62.74-22.15-27.74-7.6-50.33-14.98-67.77-22.14-17.45-7.15-32.54-18.12-45.29-32.88-12.75-14.76-19.13-34.22-19.13-58.38,0-19.68,5.81-37.69,17.45-54.01,11.63-16.33,28.29-29.19,49.99-38.58,21.69-9.4,46.63-14.1,74.82-14.1,42.04,0,75.93,10.63,101.65,31.87,25.72,21.25,39.47,50.22,41.27,86.89h-76.49c-1.34-16.54-8.05-29.74-20.13-39.59-12.07-9.83-28.41-14.76-48.99-14.76s-35.56,3.81-46.3,11.41c-10.74,7.61-16.11,17.68-16.11,30.2,0,9.85,3.57,18.12,10.74,24.83,7.15,6.71,15.87,11.97,26.16,15.76,10.29,3.81,25.5,8.62,45.63,14.43,26.85,7.17,48.87,14.43,66.1,21.81,17.22,7.38,32.09,18.24,44.62,32.55,12.52,14.32,19.01,33.32,19.46,57.03,0,21.03-5.82,39.82-17.45,56.37-11.64,16.56-28.07,29.52-49.32,38.92-21.25,9.39-46.19,14.09-74.82,14.09s-55.13-5.26-78.17-15.77"/><path class="cls-1" d="M1246.42,213.09c-.45-28.18-10.52-50.77-30.2-67.77-19.69-17-44.06-25.5-73.14-25.5-26.39,0-48.98,8.39-67.77,25.17-18.79,16.77-29.97,39.48-33.55,68.11h204.66ZM1323.59,274.82h-282.49c2.23,29.52,13.19,53.24,32.88,71.13,19.68,17.9,43.84,26.84,72.47,26.84,41.15,0,70.23-17.21,87.23-51.66h82.53c-11.18,34-31.43,61.85-60.72,83.54-29.31,21.7-65.66,32.54-109.04,32.54-35.34,0-66.99-7.94-94.94-23.82-27.96-15.88-49.89-38.25-65.76-67.1-15.88-28.85-23.83-62.29-23.83-100.32s7.72-71.46,23.15-100.32c15.43-28.85,37.13-51.1,65.09-66.76,27.95-15.65,60.05-23.49,96.29-23.49s65.98,7.61,93.27,22.82c27.28,15.21,48.53,36.57,63.74,64.08,15.2,27.51,22.81,59.17,22.81,94.94,0,13.87-.9,26.4-2.68,37.58"/><path class="cls-1" d="M2069.02,179.54c-10.51-18.79-24.27-33.1-41.27-42.94-17-9.83-35.34-14.76-55.02-14.76s-38.03,4.81-55.03,14.42c-17,9.63-30.76,23.72-41.27,42.28-10.52,18.57-15.77,40.59-15.77,66.1s5.25,47.87,15.77,67.1c10.5,19.24,24.38,33.88,41.6,43.95,17.22,10.07,35.45,15.1,54.69,15.1s38.02-4.92,55.02-14.76c17-9.84,30.76-24.26,41.27-43.28,10.51-19.01,15.77-41.27,15.77-66.76s-5.26-47.64-15.77-66.43M1805.32,145.99c15.43-28.63,36.45-50.88,63.08-66.76,26.61-15.88,56.03-23.83,88.24-23.83,29.08,0,54.45,5.7,76.16,17.11,21.69,11.41,39.02,25.61,52,42.61v-53.68h77.17v369.72h-77.17v-55.02c-12.98,17.45-30.64,31.99-53.01,43.61-22.37,11.63-47.87,17.45-76.49,17.45-31.77,0-60.84-8.16-87.23-24.49-26.4-16.33-47.31-39.14-62.74-68.44-15.43-29.29-23.15-62.51-23.15-99.64s7.72-70.01,23.15-98.64"/><path class="cls-1" d="M1462.82,179.54c10.5-18.78,24.38-33.1,41.6-42.94,17.21-9.84,35.45-14.76,54.68-14.76s38.14,4.81,55.36,14.42c17.21,9.63,31.09,23.72,41.6,42.28,10.51,18.57,15.77,40.6,15.77,66.1s-5.26,47.87-15.77,67.1c-10.51,19.24-24.38,33.88-41.6,43.95-17.22,10.07-35.68,15.1-55.36,15.1s-37.47-4.92-54.68-14.76c-17.22-9.84-31.1-24.26-41.6-43.28-10.52-19.01-15.77-41.27-15.77-66.76s5.25-47.64,15.77-66.43M1447.05,568.69v-191.2c13.86,17.01,31.76,31.2,53.68,42.61,21.91,11.41,46.97,17.11,75.16,17.11,32.21,0,61.61-8.16,88.24-24.49,26.61-16.32,47.52-39.14,62.74-68.44,15.2-29.29,22.81-62.51,22.81-99.64s-7.61-70.01-22.81-98.64c-15.22-28.62-36.13-50.88-62.74-66.76-26.62-15.88-56.03-23.83-88.24-23.83-28.19,0-53.46,5.82-75.82,17.45-22.38,11.64-40.04,25.95-53.01,42.94v-54.35h-76.49v507.25h76.49Z"/></g></svg>